<svg xmlns="http://www.w3.org/2000/svg" width="201" height="110" viewBox="0 0 201 110">
    <g fill="none" fill-rule="evenodd" transform="translate(-1 -2)">
        <path fill="#333" d="M13.965 7.05a3.293 3.293 0 0 0-.077-1.683 3.321 3.321 0 1 0-6.363.113 3.3 3.3 0 0 0-2.7-.314 3.325 3.325 0 0 0-2.15 4.183c.12.369.307.695.53.987a3.325 3.325 0 0 0-1.088 5.419 3.313 3.313 0 0 0 3.394.799c1.25 1.978 3.484 3.254 5.985 3.108a6.648 6.648 0 0 0 6.251-7.026c-.145-2.502-1.671-4.574-3.782-5.586M186.723 7.712a3.293 3.293 0 0 1-.503-1.608 3.326 3.326 0 0 1 3.195-3.452 3.32 3.32 0 0 1 2.823 1.381 3.3 3.3 0 0 1 2.43-1.218 3.324 3.324 0 0 1 3.45 3.195c.015.387-.05.757-.16 1.109.425.017.852.114 1.26.303a3.325 3.325 0 0 1 1.616 4.416 3.313 3.313 0 0 1-2.917 1.912c-.498 2.287-2.161 4.25-4.562 4.969a6.646 6.646 0 0 1-8.276-4.464c-.718-2.401.007-4.87 1.644-6.543"/>
        <path fill="#00F3FF" d="M17.585 9.673s30.409-2.2 63.228 23c0 0-9.988 23.8-12.843 23.8 0 0-46.595-17.6-55.157-37.2l4.772-9.6z"/>
        <path fill="#00A5FF" d="M186.041 9.673s-30.41-2.2-63.228 23c0 0 9.988 23.8 12.842 23.8 0 0 46.596-17.6 55.158-37.2l-4.772-9.6z"/>
        <path stroke="#FF550F" stroke-linecap="round" stroke-linejoin="round" stroke-width="2" d="M137.116 24.025l10.414 1.124-1.737 7.117 8.818 2.313-3.837 6.504 9.021 1.256-2.415 3.734"/>
        <path stroke="#00F" stroke-linecap="round" stroke-linejoin="round" stroke-width="2" d="M147.866 19.673l9.312.979-1.553 6.197 7.885 2.015-3.43 5.664 8.066 1.093-2.16 3.252"/>
        <path stroke="#FF550F" stroke-linecap="round" stroke-linejoin="round" stroke-width="2" d="M159.795 15.625l8.217.856-1.37 5.423 6.957 1.763-3.027 4.956 7.118.957-1.906 2.845"/>
        <path stroke="#FFF" stroke-linecap="round" stroke-linejoin="round" d="M188.21 19.077l-4.01 3M185.825 15.477l-4.862 2.622M183.439 11.877l-4.951 1.274"/>
        <path fill="#00F" d="M78.497 10.625L66.68 20.113l-13 23.721s-11.578 43.581-8.272 55.744c3.545 13.047 95.727 18.977 101.636-1.186 5.013-17.105-5.91-54.558-5.91-54.558l-13-23.721-5.908-9.488H78.497z"/>
        <path stroke="#FF550F" stroke-linecap="round" stroke-linejoin="round" stroke-width="2" d="M66.813 24.625l-10.561 1.121 1.762 7.102-8.943 2.308 3.89 6.49-9.148 1.253 2.45 3.726"/>
        <path stroke="#00F" stroke-linecap="round" stroke-linejoin="round" stroke-width="2" d="M55.813 20.625l-9.184.968 1.532 6.134-7.776 1.993 3.383 5.605-7.955 1.082 2.13 3.218"/>
        <path stroke="#FF550F" stroke-linecap="round" stroke-linejoin="round" stroke-width="2" d="M43.813 15.625l-8.265.866 1.379 5.488-6.999 1.784 3.045 5.015-7.16.968 1.917 2.879"/>
        <path stroke="#FFF" stroke-linecap="round" stroke-linejoin="round" d="M15.438 19.794l4.203 3.333M17.813 15.625l5 3M19.813 12.625l5 1"/>
        <path stroke="#EE1515" stroke-linejoin="round" stroke-width="5" d="M55.813 54.503L92.61 21.625l44.203 46.528-44.203 37.472z"/>
        <ellipse cx="77.313" cy="55.125" fill="#D19B9B" stroke="#979797" rx="5.5" ry="3.5"/>
        <path stroke="#FFFDFD" stroke-linecap="round" stroke-width="4" d="M55.049 90.258c-6.32-.278 2.895 8.543 1.646 1.857-.185-.988-1.113-1.66-1.67-2.49M69.049 95.258c-6.32-.278 2.895 8.543 1.646 1.857-.185-.988-1.113-1.66-1.67-2.49M139.049 93.258c-6.32-.278 2.895 8.543 1.646 1.857-.185-.988-1.113-1.66-1.67-2.49M120.049 98.258c-6.32-.278 2.895 8.543 1.646 1.857-.185-.988-1.113-1.66-1.67-2.49"/>
        <path fill="#D19B9B" d="M113.797 62.486c2.469.574 4.7-.689 4.986-2.821.285-2.133-1.486-4.327-3.954-4.902-2.469-.574-4.701.689-4.986 2.821-.285 2.133 1.485 4.328 3.954 4.902z"/>
        <ellipse cx="93.313" cy="68.125" fill="#FFEAC1" rx="18.5" ry="19.5"/>
        <ellipse cx="86.813" cy="59.625" fill="#2A2929" rx="2" ry="3" transform="matrix(-1 0 0 1 173.626 0)"/>
        <ellipse cx="102.813" cy="63.625" fill="#2A2929" rx="2" ry="3" transform="matrix(-1 0 0 1 205.626 0)"/>
        <circle cx="93.313" cy="68.125" r="5.5" fill="#D52200" transform="matrix(-1 0 0 1 186.626 0)"/>
        <path stroke="#A68263" stroke-linecap="round" stroke-linejoin="round" stroke-width="3" d="M88.71 48.34s-4.912-3.481-1.375-6.769c0 0 2.947-1.74 1.965-2.9-1.989-2.35-3.144-.581-4.323 0-1.179.58-2.161 1.933-3.733-1.355-1.572-3.287-3.895-3.343-5.108-1.353-1.18 1.934-.59 3.287.785 5.415 1.376 2.127 4.323 5.801 8.646 7.929L81.44 51.82s-8.842-2.901-9.628 3.094c0 0 .786 4.255 7.86 3.288 0 0-7.664 6.769-4.716 16.438 2.947 9.67 12.771 12.764 16.308 12.764 3.536 0 14.932 2.514 19.451-9.476 4.52-11.99.983-16.825.983-16.825s5.753 4.914 7.86.58c2.16-4.448-6.288-5.995-8.057-5.222l-3.536-4.061s9.627-1.547 13.164-7.349c3.537-5.802.723-7.901-1.375-8.316-.685-.135-2.358.194-2.162 1.74.197 1.548-.59 3.095-4.126 5.996 0 0-1.769-2.332-2.554-2.901-.76-.55-4.49-1.931-2.947 2.32.982 2.708 2.357 3.288 2.357 3.288l-4.715 2.708s-6.091-5.995-16.898-1.547"/>
    </g>
</svg>
