<svg xmlns="http://www.w3.org/2000/svg" width="128" height="144" viewBox="0 0 128 144">
    <g fill="none" fill-rule="evenodd" transform="translate(-7 -1)">
        <ellipse cx="64.823" cy="88" fill="#1A1A1A" stroke="#FFF" rx="55.5" ry="56" transform="rotate(-10 64.823 88)"/>
        <path fill="#D0021B" stroke="#FFF9F9" d="M58.073 41.963c1.424-.724-.74-2.74-1.812-3.65-8.288-7.032-12.61-16.827-18.937-25.548-6.018 33.247-41.54 60.89 20.749 29.198z"/>
        <g transform="translate(72.323)">
            <path fill="#D0021B" stroke="#FFF9F9" d="M1.902 38.289c-1.424-.725.739-2.74 1.81-3.65C12.002 27.607 16.323 17.81 22.65 9.09c6.018 33.246 41.54 60.89-20.748 29.198z"/>
            <circle cx="22" cy="9" r="7" fill="#FFF" stroke="#C5C5C5" transform="rotate(-10 22 9)"/>
            <path stroke="#FFFEFE" stroke-linecap="round" stroke-linejoin="round" stroke-width="9" d="M39.681 47.97c-2.173 1.365-6.91 5.852-10.15.938-.605-.916.772-2.338-.708-2.804-5.66-1.78-12.285 3.944-10.813-3.9.084-.446 1.834-1.257 1.257-1.015-2.904 1.216-5.765 4.36-11.143 3.065-1.56-.375.773-2.597-.814-2.862l2.054-2.21c-8.06-1.349-7.676 5.599-5.997-2.36"/>
        </g>
        <circle cx="37.314" cy="10.959" r="7" fill="#FFF" stroke="#C5C5C5" transform="rotate(-10 37.314 10.96)"/>
        <path stroke="#FFF" d="M7.103 98.895l3.044-.536 6.428-1.134 3.692-.651.134-.023M29.751 102.092c-9.416 1.66-16.044 7.244-21.247 14.733M34.572 111.647c-11.756 6.728-6.297 1.613-13.22 18.134M108.889 79.572l21.665-5.015M110.304 88.801c15.055-2.654 7.085-3.031 23.744 3.01M107.805 95.9c3.619 10.596.083 2.583 22.349 13.818"/>
        <path stroke="#FFFEFE" stroke-linecap="round" stroke-linejoin="round" stroke-width="9" d="M18.341 53.087c2.436 1.512 7.743 6.49 11.39 1.022.68-1.02-.862-2.598.8-3.118 6.356-1.99 13.778 4.36 12.142-4.356-.093-.496-2.055-1.393-1.408-1.126 3.257 1.346 6.46 4.835 12.5 3.385 1.75-.42-.864-2.885.918-3.183l-2.301-2.452c9.048-1.515 8.604 6.208 6.735-2.635"/>
        <text fill="#FFF" font-family="Roboto-Bold, Roboto" font-size="14" font-weight="bold">
            <tspan x="23.323" y="93">+ ADD FACE</tspan>
        </text>
    </g>
</svg>
