<svg xmlns="http://www.w3.org/2000/svg" width="106" height="113" viewBox="0 0 106 113">
    <g fill="none" fill-rule="evenodd" transform="rotate(-15 32.213 81.287)">
        <path fill="#D0021B" stroke="#FFF9F9" d="M4.412 86.687c-3.304-1.675 1.715-6.334 4.201-8.436 19.229-16.253 29.255-38.894 43.936-59.05 13.96 76.842 96.371 140.735-48.137 67.486z"/>
        <ellipse cx="51.04" cy="18.993" fill="#FFEAEA" rx="16.238" ry="16.181" transform="rotate(-10 51.04 18.993)"/>
        <path stroke="#FFEAEA" stroke-linecap="round" stroke-linejoin="round" stroke-width="17" d="M92.06 109.064c-5.041 3.154-16.03 13.525-23.549 2.168-1.402-2.12 1.792-5.406-1.643-6.482-13.132-4.115-28.5 9.116-25.085-9.014.194-1.031 4.255-2.904 2.916-2.346-6.737 2.81-13.374 10.078-25.852 7.085-3.617-.867 1.795-6.003-1.888-6.616l4.766-5.109c-18.7-3.116-17.81 12.941-13.913-5.454"/>
    </g>
</svg>
