<svg xmlns="http://www.w3.org/2000/svg" width="257" height="50" viewBox="0 0 257 50">
    <g fill="none" fill-rule="evenodd">
        <path fill="#F50039" d="M253.401.455l3.567 1.97-1.61 2.33.192 3.67-13.242 8.156.178 3.392.156 2.975 3.619 2.039.135 2.58.152 2.91-3.357 2.957 3.587 1.42-3.421 1.741 3.577 1.25-166.856 8.744L1.07 49.293l-.166-3.161-.145-2.774-.288-5.49L.2 32.67l-.072-1.37 8.614-2.48c.283-.115-.678-.504-2.883-1.167-3.307-.994-.213-4.073-.213-4.073L8.35 21.38l-.192-3.67-.118-2.24-2.926-2.003 7.246-.38 17.13-.897 27.064-1.419c5.318-.278 23.66-.521 55.028-.728l27.837-1.458L253.401.455z"/>
        <text fill="#FFF" font-family="Roboto-Bold, Roboto" font-size="18" font-weight="bold" transform="translate(-1)">
            <tspan x="99.167" y="30.274">SHARE</tspan>
        </text>
    </g>
</svg>
