<svg xmlns="http://www.w3.org/2000/svg" xmlns:xlink="http://www.w3.org/1999/xlink" width="260" height="92" viewBox="0 0 260 92">
    <defs>
        <filter id="a" width="130%" height="147.2%" x="-15%" y="-24.5%" filterUnits="objectBoundingBox">
            <feOffset dy="2" in="SourceAlpha" result="shadowOffsetOuter1"/>
            <feGaussianBlur in="shadowOffsetOuter1" result="shadowBlurOuter1" stdDeviation="2"/>
            <feColorMatrix in="shadowBlurOuter1" result="shadowMatrixOuter1" values="0 0 0 0 0 0 0 0 0 0 0 0 0 0 0 0 0 0 0.5 0"/>
            <feMerge>
                <feMergeNode in="shadowMatrixOuter1"/>
                <feMergeNode in="SourceGraphic"/>
            </feMerge>
        </filter>
        <linearGradient id="d" x1="100%" x2="0%" y1="50%" y2="50%">
            <stop offset="0%" stop-color="#A07D38"/>
            <stop offset="24.169%" stop-color="#A67A32"/>
            <stop offset="42.858%" stop-color="#FAF2AF"/>
            <stop offset="49.749%" stop-color="#FFF"/>
            <stop offset="64.495%" stop-color="#FDF4B1"/>
            <stop offset="77.407%" stop-color="#D1B76D"/>
            <stop offset="90.712%" stop-color="#FFFED0"/>
            <stop offset="100%" stop-color="#FFFED0"/>
        </linearGradient>
        <circle id="c" cx="39" cy="17" r="11"/>
        <filter id="b" width="168.2%" height="168.2%" x="-34.1%" y="-20.5%" filterUnits="objectBoundingBox">
            <feOffset dy="3" in="SourceAlpha" result="shadowOffsetOuter1"/>
            <feGaussianBlur in="shadowOffsetOuter1" result="shadowBlurOuter1" stdDeviation="2"/>
            <feColorMatrix in="shadowBlurOuter1" values="0 0 0 0 0 0 0 0 0 0 0 0 0 0 0 0 0 0 0.5 0"/>
        </filter>
    </defs>
    <g fill="none" fill-rule="evenodd">
        <path fill="#F00" fill-opacity=".71" d="M29.17 59.506l-2.502 2.407 1.77 1.736.573 3.254 12.367 4.624.53 3.008.466 2.638-2.531 2.478.403 2.289.455 2.58 3.312 1.952-2.627 1.93 3.121.873-2.654 1.779 137.123-24.179 64.643-12.708-.495-2.803-.433-2.46-.859-4.869-.812-4.608-.215-1.215-7.482-.53c-.252-.047.45-.572 2.107-1.574 2.485-1.503-.637-3.612-.637-3.612l-2.634-1.413-.574-3.255-.35-1.986 1.977-2.314-5.955 1.05-14.077 2.482c-10.457 1.844-17.871 3.15-22.242 3.922-4.37.77-19.302 4.058-44.793 9.864l-22.877 4.034L29.17 59.506z"/>
        <path fill="#F00C0C" fill-opacity=".71" d="M256.054 44.158l3.341 2.331-1.844 2.15-.193 3.67-14.022 6.727-.178 3.392-.156 2.975 3.386 2.406-.135 2.58-.153 2.91-3.647 2.59 3.418 1.787-3.584 1.374 3.427 1.617-166.856-8.745L0 66.352l.166-3.16.145-2.775.288-5.49.272-5.197.072-1.37 8.826-1.565c.293-.085-.622-.572-2.745-1.462-3.185-1.335.213-4.073.213-4.073l2.922-1.907.192-3.67.118-2.24-2.702-2.297 7.247.38 17.129.897 27.065 1.419c5.318.278 23.585 1.954 54.802 5.028l27.837 1.459 114.207 3.829z"/>
        <g filter="url(#a)" transform="translate(86.716 -4)">
            <path fill="#9D7" d="M18.108 17.374s3.327 17.174-12.562 8.198c0 0 4.184 8.972-5.13 14.096 0 0 11.194-4.44 16.573 7.096 0 0-.508-16.148 16.662-7.77 0 0-2.045-17.771 9.487-11.446l1.969-14.181-14.866-.09s3.413 14.012-12.133 4.097"/>
            <path fill="#9D7" d="M59.892 17.374s-3.327 17.174 12.562 8.198c0 0-4.184 8.972 5.13 14.096 0 0-11.194-4.44-16.573 7.096 0 0 .508-16.148-16.662-7.77 0 0 2.045-17.771-9.487-11.446l-1.969-14.181 14.866-.09s-3.413 14.012 12.133 4.097"/>
            <path fill="#04C121" d="M63.52 12.965s-1.469 14.006 10.652 5.69c0 0-2.73 7.489 5.103 10.942 0 0-9.292-2.772-12.802 6.857 0 0-.722-12.985-13.913-5.057 0 0 .398-14.395-8.412-8.51l-2.572-11.234 11.921-1.12S51.74 22.012 63.52 12.966M16.48 12.965s1.469 14.006-10.652 5.69c0 0 2.73 7.489-5.103 10.942 0 0 9.292-2.772 12.802 6.857 0 0 .722-12.985 13.913-5.057 0 0-.398-14.395 8.412-8.51l2.572-11.234-11.921-1.12s1.758 11.478-10.023 2.432"/>
            <g transform="rotate(-30 39 17)">
                <use fill="#000" filter="url(#b)" xlink:href="#c"/>
                <use fill="url(#d)" xlink:href="#c"/>
            </g>
        </g>
    </g>
</svg>
