<svg xmlns="http://www.w3.org/2000/svg" xmlns:xlink="http://www.w3.org/1999/xlink" width="201" height="110" viewBox="0 0 201 110">
    <defs>
        <path id="a" d="M0 0h103.546v100.877H0z"/>
    </defs>
    <g fill="none" fill-rule="evenodd">
        <path fill="#333" d="M12.965 5.05a3.293 3.293 0 0 0-.077-1.683 3.321 3.321 0 1 0-6.363.113 3.3 3.3 0 0 0-2.7-.314 3.325 3.325 0 0 0-2.15 4.183c.12.369.307.695.53.987a3.325 3.325 0 0 0-1.088 5.419 3.313 3.313 0 0 0 3.394.799c1.25 1.978 3.484 3.254 5.985 3.108a6.648 6.648 0 0 0 6.251-7.026c-.145-2.502-1.671-4.574-3.782-5.586M185.723 5.712a3.293 3.293 0 0 1-.503-1.608 3.326 3.326 0 0 1 3.195-3.452 3.32 3.32 0 0 1 2.823 1.381 3.3 3.3 0 0 1 2.43-1.218 3.324 3.324 0 0 1 3.45 3.195c.015.387-.05.757-.16 1.109.425.017.852.114 1.26.303a3.325 3.325 0 0 1 1.616 4.416 3.313 3.313 0 0 1-2.917 1.912c-.498 2.287-2.161 4.25-4.562 4.969a6.646 6.646 0 0 1-8.276-4.464c-.718-2.401.007-4.87 1.644-6.543"/>
        <path fill="#6AABFF" d="M16.585 7.673s30.409-2.2 63.228 23c0 0-9.988 23.8-12.843 23.8 0 0-46.595-17.6-55.157-37.2l4.772-9.6zM185.041 7.673s-30.41-2.2-63.228 23c0 0 9.988 23.8 12.842 23.8 0 0 46.596-17.6 55.158-37.2l-4.772-9.6z"/>
        <path stroke="#6AFF0F" stroke-linecap="round" stroke-linejoin="round" stroke-width="2" d="M136.116 22.025l10.414 1.124-1.737 7.117 8.818 2.313-3.837 6.504 9.021 1.256-2.415 3.734"/>
        <path stroke="#00F" stroke-linecap="round" stroke-linejoin="round" stroke-width="2" d="M146.866 17.673l9.312.979-1.553 6.197 7.885 2.015-3.43 5.664 8.066 1.093-2.16 3.252"/>
        <path stroke="#6AFF0F" stroke-linecap="round" stroke-linejoin="round" stroke-width="2" d="M158.795 13.625l8.217.856-1.37 5.423 6.957 1.763-3.027 4.956 7.118.957-1.906 2.845"/>
        <path stroke="#FFF" stroke-linecap="round" stroke-linejoin="round" d="M187.21 17.077l-4.01 3M184.825 13.477l-4.862 2.622M182.439 9.877l-4.951 1.274"/>
        <g transform="translate(43.813 8.625)">
            <mask id="b" fill="#fff">
                <use xlink:href="#a"/>
            </mask>
            <path fill="#6AABFF" d="M33.685 0L21.866 9.488l-13 23.721S-2.712 76.791.594 88.953C4.139 102 96.32 107.93 102.23 87.767c5.013-17.105-5.91-54.558-5.91-54.558l-13-23.72L77.413 0H33.685z" mask="url(#b)"/>
        </g>
        <path stroke="#6AFF0F" stroke-linecap="round" stroke-linejoin="round" stroke-width="2" d="M65.813 22.625l-10.561 1.121 1.762 7.102-8.943 2.308 3.89 6.49-9.148 1.253 2.45 3.726"/>
        <path stroke="#00F" stroke-linecap="round" stroke-linejoin="round" stroke-width="2" d="M54.813 18.625l-9.184.968 1.532 6.134-7.776 1.993 3.383 5.605-7.955 1.082 2.13 3.218"/>
        <path stroke="#6AFF0F" stroke-linecap="round" stroke-linejoin="round" stroke-width="2" d="M42.813 13.625l-8.265.866 1.379 5.488-6.999 1.784 3.045 5.015-7.16.968 1.917 2.879"/>
        <path stroke="#FFF" stroke-linecap="round" stroke-linejoin="round" d="M14.438 17.794l4.203 3.333M16.813 13.625l5 3M18.813 10.625l5 1"/>
        <path fill="#FFFDFD" stroke="#FFA1FD" stroke-linejoin="round" stroke-width="5" d="M57.813 58.442l15.024-21.31 16.976 21.31-16.976 20.69zM100.813 58.442l15.024-21.31 16.976 21.31-16.976 20.69z"/>
        <path fill="#4B32DF" fill-opacity=".7" stroke="#EE1515" stroke-linejoin="round" stroke-width="5" d="M76.813 57.531l18.78-27.399 21.22 27.399-21.22 26.601z"/>
        <path stroke="#FFFDFD" stroke-linecap="round" stroke-width="4" d="M54.049 88.258c-6.32-.278 2.895 8.543 1.646 1.857-.185-.988-1.113-1.66-1.67-2.49M68.049 93.258c-6.32-.278 2.895 8.543 1.646 1.857-.185-.988-1.113-1.66-1.67-2.49M138.049 91.258c-6.32-.278 2.895 8.543 1.646 1.857-.185-.988-1.113-1.66-1.67-2.49M119.049 96.258c-6.32-.278 2.895 8.543 1.646 1.857-.185-.988-1.113-1.66-1.67-2.49"/>
    </g>
</svg>
